<svg xmlns="http://www.w3.org/2000/svg" xmlns:xlink="http://www.w3.org/1999/xlink" width="500" zoomAndPan="magnify" viewBox="0 0 375 374.999991" height="500" preserveAspectRatio="xMidYMid meet" version="1.0"><defs><clipPath id="7003fe26a3"><path d="M 113.570312 70.613281 L 188 70.613281 L 188 188 L 113.570312 188 Z M 113.570312 70.613281 " clip-rule="nonzero"/></clipPath><clipPath id="06185216ca"><path d="M 187 70.613281 L 261.320312 70.613281 L 261.320312 188 L 187 188 Z M 187 70.613281 " clip-rule="nonzero"/></clipPath><clipPath id="e9a0f26ebe"><path d="M 187 187 L 261.320312 187 L 261.320312 304.613281 L 187 304.613281 Z M 187 187 " clip-rule="nonzero"/></clipPath><clipPath id="3a667cee41"><path d="M 113.570312 70.613281 L 188 70.613281 L 188 188 L 113.570312 188 Z M 113.570312 70.613281 " clip-rule="nonzero"/></clipPath><clipPath id="c50ad86cd8"><path d="M 113.570312 187 L 188 187 L 188 304.613281 L 113.570312 304.613281 Z M 113.570312 187 " clip-rule="nonzero"/></clipPath></defs><rect x="-37.5" width="450" fill="#ffffff" y="-37.499999" height="449.999989" fill-opacity="1"/><rect x="-37.5" width="450" fill="#ffffff" y="-37.499999" height="449.999989" fill-opacity="1"/><rect x="-37.5" width="450" fill="#ffffff" y="-37.499999" height="449.999989" fill-opacity="1"/><g clip-path="url(#7003fe26a3)"><path fill="#ebebeb" d="M 187.492188 70.652344 L 187.492188 187.625 L 113.621094 187.625 Z M 187.492188 70.652344 " fill-opacity="1" fill-rule="evenodd"/></g><g clip-path="url(#06185216ca)"><path fill="#ffffff" d="M 187.421875 70.980469 L 261.292969 187.957031 L 187.421875 187.957031 Z M 187.421875 70.980469 " fill-opacity="1" fill-rule="evenodd"/></g><g clip-path="url(#e9a0f26ebe)"><path fill="#d9d9d9" d="M 187.390625 304.390625 L 187.441406 187.417969 L 261.3125 187.445312 Z M 187.390625 304.390625 " fill-opacity="1" fill-rule="evenodd"/></g><g clip-path="url(#3a667cee41)"><path fill="#d9d9d9" d="M 187.492188 70.652344 L 187.492188 187.625 L 113.621094 187.625 Z M 187.492188 70.652344 " fill-opacity="1" fill-rule="evenodd"/></g><g clip-path="url(#c50ad86cd8)"><path fill="#ffffff" d="M 187.4375 304.582031 L 113.648438 187.5625 L 187.519531 187.605469 Z M 187.4375 304.582031 " fill-opacity="1" fill-rule="evenodd"/></g></svg>